G04 EasyPC Gerber Version 21.0.3 Build 4286 *
G04 #@! TF.Part,Single*
G04 #@! TF.FileFunction,Drillmap *
G04 #@! TF.FilePolarity,Positive *
%FSLAX35Y35*%
%MOIN*%
%ADD14C,0.00500*%
G04 #@! TA.AperFunction,WasherPad*
%ADD13C,0.10000*%
X0Y0D02*
D02*
D13*
X50250Y80250D03*
Y100250D03*
Y130250D03*
Y150250D03*
X60250Y80250D03*
Y100250D03*
Y130250D03*
Y150250D03*
X70250Y80250D03*
Y100250D03*
Y130250D03*
Y150250D03*
X80250Y80250D03*
Y100250D03*
Y130250D03*
Y150250D03*
X90250Y80250D03*
Y100250D03*
Y130250D03*
Y150250D03*
X100250Y80250D03*
Y100250D03*
Y130250D03*
Y150250D03*
X150250Y130250D03*
Y140250D03*
Y150250D03*
D02*
D14*
X60250Y86187D02*
X61813Y89937D01*
X63375Y86187*
X60875Y87750D02*
X62750D01*
X60250Y106187D02*
X61813Y109937D01*
X63375Y106187*
X60875Y107750D02*
X62750D01*
X60250Y136187D02*
X61813Y139937D01*
X63375Y136187*
X60875Y137750D02*
X62750D01*
X60250Y156187D02*
X61813Y159937D01*
X63375Y156187*
X60875Y157750D02*
X62750D01*
X70250Y86187D02*
X71813Y89937D01*
X73375Y86187*
X70875Y87750D02*
X72750D01*
X70250Y106187D02*
X71813Y109937D01*
X73375Y106187*
X70875Y107750D02*
X72750D01*
X70250Y136187D02*
X71813Y139937D01*
X73375Y136187*
X70875Y137750D02*
X72750D01*
X70250Y156187D02*
X71813Y159937D01*
X73375Y156187*
X70875Y157750D02*
X72750D01*
X80250Y86187D02*
X81813Y89937D01*
X83375Y86187*
X80875Y87750D02*
X82750D01*
X80250Y106187D02*
X81813Y109937D01*
X83375Y106187*
X80875Y107750D02*
X82750D01*
X80250Y136187D02*
X81813Y139937D01*
X83375Y136187*
X80875Y137750D02*
X82750D01*
X80250Y156187D02*
X81813Y159937D01*
X83375Y156187*
X80875Y157750D02*
X82750D01*
X90250Y86187D02*
X91813Y89937D01*
X93375Y86187*
X90875Y87750D02*
X92750D01*
X90250Y106187D02*
X91813Y109937D01*
X93375Y106187*
X90875Y107750D02*
X92750D01*
X90250Y136187D02*
X91813Y139937D01*
X93375Y136187*
X90875Y137750D02*
X92750D01*
X90250Y156187D02*
X91813Y159937D01*
X93375Y156187*
X90875Y157750D02*
X92750D01*
X100250Y86187D02*
X101813Y89937D01*
X103375Y86187*
X100875Y87750D02*
X102750D01*
X100250Y106187D02*
X101813Y109937D01*
X103375Y106187*
X100875Y107750D02*
X102750D01*
X100250Y136187D02*
X101813Y139937D01*
X103375Y136187*
X100875Y137750D02*
X102750D01*
X100250Y156187D02*
X101813Y159937D01*
X103375Y156187*
X100875Y157750D02*
X102750D01*
X110250Y86187D02*
X111813Y89937D01*
X113375Y86187*
X110875Y87750D02*
X112750D01*
X110250Y106187D02*
X111813Y109937D01*
X113375Y106187*
X110875Y107750D02*
X112750D01*
X110250Y136187D02*
X111813Y139937D01*
X113375Y136187*
X110875Y137750D02*
X112750D01*
X110250Y156187D02*
X111813Y159937D01*
X113375Y156187*
X110875Y157750D02*
X112750D01*
X160250Y136187D02*
X161813Y139937D01*
X163375Y136187*
X160875Y137750D02*
X162750D01*
X160250Y146187D02*
X161813Y149937D01*
X163375Y146187*
X160875Y147750D02*
X162750D01*
X160250Y156187D02*
X161813Y159937D01*
X163375Y156187*
X160875Y157750D02*
X162750D01*
X0Y0D02*
M02*
